HIERARCHY
ROOT Hips
{
	OFFSET -3.958830 18.904000 13.208200
	CHANNELS 6 Xposition Yposition Zposition Zrotation Yrotation Xrotation 
	JOINT LHipJoint
	{
		OFFSET 0.000000 0.000000 0.000000
		CHANNELS 3 Zrotation Yrotation Xrotation
		JOINT LeftUpLeg
		{
			OFFSET 1.800000 -1.400000 0.085000
			CHANNELS 3 Zrotation Yrotation Xrotation
			JOINT LeftLeg
			{
				OFFSET 2.215000 -6.000000 0.000000
				CHANNELS 3 Zrotation Yrotation Xrotation
				JOINT LeftFoot
				{
					OFFSET 2.500000 -6.900000 0.000000
					CHANNELS 3 Zrotation Yrotation Xrotation
					JOINT LeftToeBase
					{
						OFFSET 0.200000 -0.500000 1.950000
						CHANNELS 3 Zrotation Yrotation Xrotation
						End Site
						{
							OFFSET 0.000000 0.000000 0.000000
						}
					}
				}
			}
		}
	}
	JOINT RHipJoint
	{
		OFFSET 0.000000 0.000000 0.000000
		CHANNELS 3 Zrotation Yrotation Xrotation
		JOINT RightUpLeg
		{
			OFFSET -1.800000 -1.400000 0.085000
			CHANNELS 3 Zrotation Yrotation Xrotation
			JOINT RightLeg
			{
				OFFSET -2.215000 -6.000000 0.000000
				CHANNELS 3 Zrotation Yrotation Xrotation
				JOINT RightFoot
				{
					OFFSET -2.500000 -6.900000 0.000000
					CHANNELS 3 Zrotation Yrotation Xrotation
					JOINT RightToeBase
					{
						OFFSET -0.200000 -0.500000 1.950000
						CHANNELS 3 Zrotation Yrotation Xrotation
						End Site
						{
							OFFSET 0.000000 0.000000 0.000000
						}
					}
				}
			}
		}
	}
	JOINT LowerBack
	{
		OFFSET 0.000000 0.000000 0.000000
		CHANNELS 3 Zrotation Yrotation Xrotation
		JOINT Spine
		{
			OFFSET -0.087000 1.940000 -0.288900
			CHANNELS 3 Zrotation Yrotation Xrotation
			JOINT Spine1
			{
				OFFSET 0.000000 1.950000 0.060000
				CHANNELS 3 Zrotation Yrotation Xrotation
				JOINT Neck
				{
					OFFSET 0.000000 0.000000 0.000000
					CHANNELS 3 Zrotation Yrotation Xrotation
					JOINT Neck1
					{
						OFFSET 0.000000 1.600000 0.340000
						CHANNELS 3 Zrotation Yrotation Xrotation
						JOINT Head
						{
							OFFSET 0.000000 1.667000 -0.240000
							CHANNELS 3 Zrotation Yrotation Xrotation
							End Site
							{
								OFFSET 0.000000 0.000000 0.000000
							}
						}
					}
				}
				JOINT LeftShoulder
				{
					OFFSET 0.000000 0.000000 0.000000
					CHANNELS 3 Zrotation Yrotation Xrotation
					JOINT LeftArm
					{
						OFFSET 2.700000 1.550000 -0.730000
						CHANNELS 3 Zrotation Yrotation Xrotation
						JOINT LeftForeArm
						{
							OFFSET 5.450000 0.000000 0.000000
							CHANNELS 3 Zrotation Yrotation Xrotation
							JOINT LeftHand
							{
								OFFSET 3.450000 0.000000 0.000000
								CHANNELS 3 Zrotation Yrotation Xrotation
								JOINT LeftHandIndex1
								{
									OFFSET 0.750000 0.000000 0.000000
									CHANNELS 3 Zrotation Yrotation Xrotation
									End Site
									{
										OFFSET 0.000000 0.000000 0.000000
									}
								}
							}
						}
					}
				}
				JOINT RightShoulder
				{
					OFFSET 0.000000 0.000000 0.000000
					CHANNELS 3 Zrotation Yrotation Xrotation
					JOINT RightArm
					{
						OFFSET -2.700000 1.550000 -0.730000
						CHANNELS 3 Zrotation Yrotation Xrotation
						JOINT RightForeArm
						{
							OFFSET -5.450000 0.000000 0.000000
							CHANNELS 3 Zrotation Yrotation Xrotation
							JOINT RightHand
							{
								OFFSET -3.450000 0.000000 0.000000
								CHANNELS 3 Zrotation Yrotation Xrotation
								JOINT RightHandIndex1
								{
									OFFSET -0.750000 0.000000 0.000000
									CHANNELS 3 Zrotation Yrotation Xrotation
									End Site
									{
										OFFSET 0.000000 0.000000 0.000000
									}
								}
							}
						}
					}
				}
			}
		}
	}
}
MOTION
Frames: 10
Frame Time: 0.016667
0.332820 16.235110 -2.355930 -2.041007 -38.852862 3.732244 -14.916581 13.480813 3.746375 7.413332 -3.726326 -30.871889 -1.833095 5.391304 21.812630 -0.404954 3.562317 3.093766 0.329170 0.362810 0.295540 18.297658 -11.358598 2.373793 -8.275254 1.085989 -11.227001 5.935881 -6.991169 26.109374 -0.368017 -4.380684 2.722094 0.277260 -0.033420 0.079340 -3.623185 -1.981315 -7.338014 3.863210 5.040649 19.271575 -2.817200 6.333577 -1.768319 -5.049139 -7.679050 -4.470688 -18.547542 13.497649 30.646964 -2.427710 12.217150 -14.625650 -24.003457 1.446515 -5.037733 -12.964094 -17.818276 -3.086166 80.452467 -56.485998 -40.657835 -3.525498 2.112344 0.247190 -0.003640 0.153700 0.034410 32.105602 2.907001 4.805661 54.513682 -7.002728 -13.975223 21.095185 36.320835 2.636488 2.228295 -1.489789 -0.076830 0.160820 -0.064700 -0.135820 
0.349730 16.239780 -2.379080 -1.788147 -38.531339 3.270687 -14.875735 13.508841 3.655774 6.901177 -3.700346 -29.761984 -1.769791 5.133021 20.572194 -0.423657 3.370667 3.170679 0.336490 0.372950 0.298390 18.330997 -11.330782 2.429799 -9.199771 1.746665 -13.504821 7.182455 -8.081311 29.873037 -0.437596 -4.850037 2.529466 0.279990 -0.042580 0.078750 -3.775729 -2.013003 -7.306060 4.934122 3.832148 20.070922 -3.518832 4.997717 -2.183348 -5.387982 -8.455990 -4.331558 -20.625924 14.648705 30.132889 -3.222190 12.664040 -14.661740 -22.513544 3.232906 -5.289923 -12.549626 -15.610923 -3.847266 72.385668 -59.074897 -36.532369 -3.499780 2.174599 0.248210 -0.010770 0.160280 0.035900 31.117892 1.228764 4.113477 55.572532 -6.778458 -14.065745 24.198754 38.256147 3.807383 2.249598 -1.502986 -0.070400 0.160230 -0.067020 -0.133610 
0.368070 16.246560 -2.402220 -1.429558 -37.989363 2.804046 -14.847135 13.452508 3.569822 6.749596 -3.682653 -28.789108 -2.353072 5.078175 19.340313 -0.432728 3.263925 3.215151 0.338940 0.376000 0.299300 18.371027 -11.239247 2.527469 -10.648301 2.338292 -15.752529 9.139873 -9.553155 33.035686 -0.528446 -5.427043 2.301574 0.279420 -0.049010 0.078990 -3.953065 -2.011771 -7.302676 6.251798 2.605106 20.610124 -4.392231 3.669954 -2.179127 -5.602949 -9.056075 -4.333618 -22.436539 15.572619 29.794701 -4.044380 12.980010 -14.414820 -20.700027 4.778382 -5.377573 -12.534113 -13.913092 -4.269553 63.033097 -61.082763 -31.824778 -3.513607 2.341622 0.245120 -0.013160 0.162250 0.035380 29.598730 -0.379396 3.514706 57.109688 -6.611855 -14.098649 27.495495 40.109206 5.157398 2.274816 -1.513251 -0.064650 0.157020 -0.066910 -0.131890 
0.391830 16.256040 -2.423560 -0.939475 -37.379972 2.128135 -14.835040 13.367159 3.490390 6.762257 -3.672161 -27.809674 -3.368672 5.182175 18.303179 -0.427427 3.238227 3.228131 0.332060 0.368070 0.298010 18.404068 -11.112091 2.639549 -12.489587 2.725759 -17.695394 11.215267 -11.110142 35.357381 -0.622456 -5.993825 2.082892 0.270300 -0.055380 0.077290 -4.100726 -2.034820 -7.322224 7.623674 1.547336 20.908283 -5.163737 2.598624 -1.396772 -5.529664 -9.371220 -4.785113 -23.881054 16.591183 30.220975 -4.760570 13.563670 -13.759210 -18.741684 5.346792 -5.041573 -12.919800 -12.752561 -4.419036 49.982037 -62.083221 -25.112475 -3.559415 2.617162 0.245210 -0.014830 0.165010 0.032040 27.489966 -1.132186 3.366050 59.022713 -6.360173 -14.209118 31.057742 42.435947 6.817476 2.298923 -1.527618 -0.062080 0.151500 -0.064770 -0.132660 
0.417240 16.262110 -2.446010 -0.474115 -36.555479 1.311957 -14.841626 13.278964 3.418683 6.926884 -3.648579 -26.829047 -4.584671 5.366903 17.407544 -0.409201 3.265249 3.217427 0.326520 0.362600 0.306320 18.423805 -10.962528 2.752607 -14.409056 2.866499 -19.131431 13.313305 -12.725121 37.098595 -0.725027 -6.547548 1.872910 0.260110 -0.070090 0.077670 -4.185964 -2.108510 -7.364804 8.729043 0.688905 20.950459 -5.477358 1.767334 -0.014799 -5.336398 -9.229420 -5.420857 -24.270578 17.204814 31.497113 -5.423420 14.260840 -13.052150 -16.479722 5.050084 -4.385176 -12.573563 -12.483189 -3.931286 33.790002 -62.340795 -16.747848 -3.611991 2.920268 0.244440 -0.016390 0.173630 0.025270 24.965889 -1.150722 3.409500 60.815971 -5.641705 -14.127090 33.244401 43.425072 7.804135 2.324560 -1.534481 -0.056120 0.138510 -0.068030 -0.137380 
0.440680 16.266810 -2.472340 -0.102785 -35.635950 0.394290 -14.868555 13.250914 3.368843 7.200148 -3.598094 -25.943721 -5.616015 5.561322 16.796525 -0.383858 3.333887 3.192146 0.312190 0.345480 0.312460 18.417941 -10.817950 2.830717 -15.890358 2.841946 -20.077188 14.635093 -14.032394 38.652164 -0.813132 -7.007592 1.706187 0.242840 -0.080160 0.079910 -4.159458 -2.296599 -7.422948 9.194095 0.014081 21.016595 -5.124137 1.099867 1.453808 -5.010426 -8.802916 -6.148455 -23.753451 17.648611 33.079671 -5.964230 15.194060 -12.254430 -14.716725 3.965680 -3.549605 -11.380721 -12.111738 -3.291271 19.025945 -61.662951 -8.914404 -3.649965 3.122065 0.245030 -0.012750 0.179970 0.016730 22.821602 -0.398078 3.702297 61.629773 -4.935857 -13.966905 35.576696 43.921795 8.713729 2.342787 -1.553642 -0.054480 0.123100 -0.068710 -0.145030 
0.462630 16.272310 -2.493040 -0.056004 -35.029266 -0.221689 -14.896822 13.250979 3.339561 7.758955 -3.470710 -25.067452 -6.609899 5.713307 15.932190 -0.358981 3.398197 3.166156 0.288490 0.314110 0.324610 18.401698 -10.709886 2.871864 -16.787050 2.723454 -20.630492 15.355792 -14.877575 39.582043 -0.866722 -7.284226 1.607365 0.216150 -0.097090 0.081540 -4.095012 -2.476962 -7.482254 9.606052 -0.433040 20.810579 -4.632032 0.680461 2.837672 -4.401755 -8.091759 -6.831931 -22.278877 17.706878 35.066155 -6.755160 16.355980 -11.567680 -13.425443 2.421756 -2.755901 -10.105491 -11.886068 -2.768348 6.877596 -60.431222 -2.401913 -3.669761 3.229635 0.251360 -0.008970 0.187690 -0.000710 20.594150 0.711455 4.118969 62.144037 -4.183229 -13.803553 36.853708 43.139291 8.874510 2.362891 -1.557450 -0.057210 0.101620 -0.067480 -0.161760 
0.479770 16.278430 -2.514720 0.182850 -34.222236 -0.762245 -14.917118 13.259207 3.326096 7.954643 -3.418197 -24.354510 -7.237364 5.740540 15.112759 -0.348100 3.416109 3.159150 0.268700 0.289380 0.334100 18.390609 -10.654644 2.866441 -17.437437 2.479973 -20.970827 15.404299 -15.313997 40.204543 -0.889503 -7.428623 1.553135 0.197510 -0.106740 0.083650 -4.040180 -2.610033 -7.511005 9.853525 -0.839163 20.292244 -4.353697 0.231117 3.966557 -3.876322 -7.327921 -7.281290 -20.509864 17.591845 36.698573 -7.186910 17.333240 -11.135620 -12.283951 1.105647 -2.188772 -9.655973 -12.329588 -2.402607 -0.660362 -58.812060 1.604436 -3.679764 3.269893 0.256180 -0.002430 0.192310 -0.015980 18.615102 1.467753 4.377289 62.705998 -3.343840 -13.507334 37.376101 42.216515 8.761047 2.376119 -1.554438 -0.062160 0.087080 -0.063890 -0.176410 
0.493720 16.286670 -2.538190 0.557150 -33.391351 -1.158923 -14.936792 13.270288 3.342040 8.001301 -3.425293 -23.897721 -7.843426 5.747265 14.339551 -0.331372 3.423909 3.157425 0.253510 0.271700 0.337870 18.378316 -10.624425 2.821429 -17.810894 2.197025 -21.098093 15.022286 -15.395091 40.492324 -0.886583 -7.457138 1.539806 0.181710 -0.110710 0.087730 -3.979057 -2.731929 -7.523679 9.969318 -1.209233 19.590147 -4.049661 -0.199679 4.869408 -3.421065 -6.660662 -7.672483 -18.938243 17.467947 37.966067 -7.318300 18.084760 -10.584510 -11.295786 -0.028208 -1.633203 -10.091187 -12.795506 -2.052297 -7.179370 -56.541983 4.851318 -3.683246 3.300025 0.254360 0.004800 0.194620 -0.024480 16.910457 2.117123 4.578440 63.107561 -2.529012 -13.165234 37.638598 41.456883 8.625844 2.387830 -1.558995 -0.061910 0.072180 -0.063270 -0.183210 
0.502730 16.300370 -2.563600 1.065825 -32.666444 -1.609944 -14.944285 13.285536 3.362824 7.913492 -3.426349 -23.378439 -8.370439 5.710460 13.495659 -0.322620 3.418355 3.163069 0.235340 0.248590 0.338210 18.373188 -10.640782 2.750024 -18.004219 1.923943 -21.132981 14.099324 -15.187487 40.825826 -0.867516 -7.417723 1.549023 0.164980 -0.112400 0.088940 -3.945993 -2.792050 -7.518085 10.099422 -1.561565 18.850011 -4.064766 -0.598683 5.568275 -2.999292 -6.045985 -8.049921 -17.563504 17.250810 39.207839 -7.324240 18.579060 -10.089110 -10.280733 -1.051130 -1.117681 -10.903333 -13.337402 -1.714851 -12.160609 -53.495082 7.029637 -3.683359 3.302507 0.258810 0.008760 0.195890 -0.034280 15.206887 2.644238 4.757401 64.011937 -1.702909 -12.905138 37.387731 40.738271 8.333819 2.397019 -1.552546 -0.066550 0.063900 -0.057630 -0.190580 
